<mxfile host="app.diagrams.net" modified="2024-04-20T05:58:56.068Z" agent="Mozilla/5.0 (Windows NT 10.0; Win64; x64) AppleWebKit/537.36 (KHTML, like Gecko) Chrome/123.0.0.0 Safari/537.36" etag="eJAvyZ3wH4-vQ_Wk_mW_" version="24.2.7" type="device">
  <diagram name="Page-1" id="E9G2ToThL0UMcnEXdAxS">
    <mxGraphModel dx="1120" dy="460" grid="1" gridSize="10" guides="1" tooltips="1" connect="1" arrows="1" fold="1" page="1" pageScale="1" pageWidth="850" pageHeight="1100" math="0" shadow="0">
      <root>
        <mxCell id="0" />
        <mxCell id="ZS98AFgOagFly8oTbTb0-1" parent="0" />
        <mxCell id="wrb29RcUB0kkxjVxi_4R-0" value="MayIHelpYou&lt;div&gt;&lt;br&gt;&lt;/div&gt;&lt;div&gt;System-2024&lt;/div&gt;&lt;div&gt;&lt;br&gt;&lt;/div&gt;&lt;div&gt;1.0&lt;/div&gt;" style="ellipse;whiteSpace=wrap;html=1;" parent="ZS98AFgOagFly8oTbTb0-1" vertex="1">
          <mxGeometry x="380" y="130" width="130" height="130" as="geometry" />
        </mxCell>
        <mxCell id="wrb29RcUB0kkxjVxi_4R-1" value="User" style="rounded=0;whiteSpace=wrap;html=1;" parent="ZS98AFgOagFly8oTbTb0-1" vertex="1">
          <mxGeometry x="100" y="70" width="120" height="40" as="geometry" />
        </mxCell>
        <mxCell id="wrb29RcUB0kkxjVxi_4R-2" value="User DB" style="shape=partialRectangle;whiteSpace=wrap;html=1;left=0;right=0;fillColor=none;" parent="ZS98AFgOagFly8oTbTb0-1" vertex="1">
          <mxGeometry x="670" y="70" width="120" height="40" as="geometry" />
        </mxCell>
        <mxCell id="wrb29RcUB0kkxjVxi_4R-3" value="Admin DB" style="shape=partialRectangle;whiteSpace=wrap;html=1;left=0;right=0;fillColor=none;" parent="ZS98AFgOagFly8oTbTb0-1" vertex="1">
          <mxGeometry x="670" y="170" width="120" height="30" as="geometry" />
        </mxCell>
        <mxCell id="wrb29RcUB0kkxjVxi_4R-4" value="Employee DB" style="shape=partialRectangle;whiteSpace=wrap;html=1;left=0;right=0;fillColor=none;" parent="ZS98AFgOagFly8oTbTb0-1" vertex="1">
          <mxGeometry x="680" y="280" width="120" height="40" as="geometry" />
        </mxCell>
        <mxCell id="wrb29RcUB0kkxjVxi_4R-5" value="Admin" style="rounded=0;whiteSpace=wrap;html=1;" parent="ZS98AFgOagFly8oTbTb0-1" vertex="1">
          <mxGeometry x="110" y="160" width="120" height="40" as="geometry" />
        </mxCell>
        <mxCell id="wrb29RcUB0kkxjVxi_4R-6" value="Employee" style="rounded=0;whiteSpace=wrap;html=1;" parent="ZS98AFgOagFly8oTbTb0-1" vertex="1">
          <mxGeometry x="110" y="280" width="120" height="40" as="geometry" />
        </mxCell>
        <mxCell id="wrb29RcUB0kkxjVxi_4R-7" value="" style="endArrow=classic;html=1;rounded=0;exitX=1;exitY=0.75;exitDx=0;exitDy=0;entryX=0;entryY=0;entryDx=0;entryDy=0;" parent="ZS98AFgOagFly8oTbTb0-1" source="wrb29RcUB0kkxjVxi_4R-1" target="wrb29RcUB0kkxjVxi_4R-0" edge="1">
          <mxGeometry width="50" height="50" relative="1" as="geometry">
            <mxPoint x="400" y="200" as="sourcePoint" />
            <mxPoint x="450" y="150" as="targetPoint" />
          </mxGeometry>
        </mxCell>
        <mxCell id="wrb29RcUB0kkxjVxi_4R-8" value="" style="endArrow=classic;html=1;rounded=0;exitX=0.985;exitY=0.277;exitDx=0;exitDy=0;entryX=0;entryY=0.5;entryDx=0;entryDy=0;exitPerimeter=0;" parent="ZS98AFgOagFly8oTbTb0-1" source="wrb29RcUB0kkxjVxi_4R-0" target="wrb29RcUB0kkxjVxi_4R-2" edge="1">
          <mxGeometry width="50" height="50" relative="1" as="geometry">
            <mxPoint x="570" y="200" as="sourcePoint" />
            <mxPoint x="739" y="249" as="targetPoint" />
            <Array as="points">
              <mxPoint x="540" y="150" />
            </Array>
          </mxGeometry>
        </mxCell>
        <mxCell id="wrb29RcUB0kkxjVxi_4R-9" value="" style="endArrow=classic;html=1;rounded=0;exitX=1;exitY=0.5;exitDx=0;exitDy=0;entryX=0;entryY=0.5;entryDx=0;entryDy=0;" parent="ZS98AFgOagFly8oTbTb0-1" source="wrb29RcUB0kkxjVxi_4R-0" target="wrb29RcUB0kkxjVxi_4R-3" edge="1">
          <mxGeometry width="50" height="50" relative="1" as="geometry">
            <mxPoint x="550" y="190" as="sourcePoint" />
            <mxPoint x="712" y="114" as="targetPoint" />
            <Array as="points" />
          </mxGeometry>
        </mxCell>
        <mxCell id="wrb29RcUB0kkxjVxi_4R-10" value="" style="endArrow=classic;html=1;rounded=0;exitX=1;exitY=1;exitDx=0;exitDy=0;entryX=0;entryY=0.5;entryDx=0;entryDy=0;" parent="ZS98AFgOagFly8oTbTb0-1" source="wrb29RcUB0kkxjVxi_4R-0" target="wrb29RcUB0kkxjVxi_4R-4" edge="1">
          <mxGeometry width="50" height="50" relative="1" as="geometry">
            <mxPoint x="560" y="290" as="sourcePoint" />
            <mxPoint x="722" y="214" as="targetPoint" />
            <Array as="points">
              <mxPoint x="592" y="274" />
            </Array>
          </mxGeometry>
        </mxCell>
        <mxCell id="wrb29RcUB0kkxjVxi_4R-11" value="" style="endArrow=classic;html=1;rounded=0;exitX=1;exitY=0.5;exitDx=0;exitDy=0;entryX=0;entryY=0.5;entryDx=0;entryDy=0;" parent="ZS98AFgOagFly8oTbTb0-1" source="wrb29RcUB0kkxjVxi_4R-5" target="wrb29RcUB0kkxjVxi_4R-0" edge="1">
          <mxGeometry width="50" height="50" relative="1" as="geometry">
            <mxPoint x="280" y="180" as="sourcePoint" />
            <mxPoint x="442" y="104" as="targetPoint" />
            <Array as="points" />
          </mxGeometry>
        </mxCell>
        <mxCell id="wrb29RcUB0kkxjVxi_4R-17" value="" style="endArrow=classic;html=1;rounded=0;entryX=0;entryY=1;entryDx=0;entryDy=0;exitX=1;exitY=0.5;exitDx=0;exitDy=0;" parent="ZS98AFgOagFly8oTbTb0-1" source="wrb29RcUB0kkxjVxi_4R-6" target="wrb29RcUB0kkxjVxi_4R-0" edge="1">
          <mxGeometry width="50" height="50" relative="1" as="geometry">
            <mxPoint x="400" y="200" as="sourcePoint" />
            <mxPoint x="450" y="150" as="targetPoint" />
          </mxGeometry>
        </mxCell>
        <mxCell id="wrb29RcUB0kkxjVxi_4R-18" value="" style="endArrow=classic;html=1;rounded=0;entryX=1;entryY=0.75;entryDx=0;entryDy=0;exitX=0.254;exitY=0.954;exitDx=0;exitDy=0;exitPerimeter=0;" parent="ZS98AFgOagFly8oTbTb0-1" source="wrb29RcUB0kkxjVxi_4R-0" target="wrb29RcUB0kkxjVxi_4R-6" edge="1">
          <mxGeometry width="50" height="50" relative="1" as="geometry">
            <mxPoint x="400" y="200" as="sourcePoint" />
            <mxPoint x="450" y="150" as="targetPoint" />
          </mxGeometry>
        </mxCell>
        <mxCell id="wrb29RcUB0kkxjVxi_4R-19" value="" style="endArrow=classic;html=1;rounded=0;exitX=0;exitY=0.562;exitDx=0;exitDy=0;exitPerimeter=0;entryX=1;entryY=0.75;entryDx=0;entryDy=0;" parent="ZS98AFgOagFly8oTbTb0-1" source="wrb29RcUB0kkxjVxi_4R-0" target="wrb29RcUB0kkxjVxi_4R-5" edge="1">
          <mxGeometry width="50" height="50" relative="1" as="geometry">
            <mxPoint x="400" y="200" as="sourcePoint" />
            <mxPoint x="450" y="150" as="targetPoint" />
          </mxGeometry>
        </mxCell>
        <mxCell id="wrb29RcUB0kkxjVxi_4R-20" value="" style="endArrow=classic;html=1;rounded=0;entryX=1;entryY=0.25;entryDx=0;entryDy=0;exitX=0.346;exitY=0.008;exitDx=0;exitDy=0;exitPerimeter=0;" parent="ZS98AFgOagFly8oTbTb0-1" source="wrb29RcUB0kkxjVxi_4R-0" target="wrb29RcUB0kkxjVxi_4R-1" edge="1">
          <mxGeometry width="50" height="50" relative="1" as="geometry">
            <mxPoint x="400" y="200" as="sourcePoint" />
            <mxPoint x="450" y="150" as="targetPoint" />
          </mxGeometry>
        </mxCell>
        <mxCell id="nHeNub96CPO3WCwvrTsb-0" value="&lt;font style=&quot;font-size: 12px;&quot;&gt;Login Details&lt;/font&gt;" style="text;strokeColor=none;fillColor=none;html=1;fontSize=24;fontStyle=1;verticalAlign=middle;align=center;rotation=15;" vertex="1" parent="ZS98AFgOagFly8oTbTb0-1">
          <mxGeometry x="270" y="70" width="100" height="40" as="geometry" />
        </mxCell>
        <mxCell id="nHeNub96CPO3WCwvrTsb-1" value="&lt;span style=&quot;font-size: 12px;&quot;&gt;Login Sanction&lt;/span&gt;" style="text;strokeColor=none;fillColor=none;html=1;fontSize=24;fontStyle=1;verticalAlign=middle;align=center;rotation=15;" vertex="1" parent="ZS98AFgOagFly8oTbTb0-1">
          <mxGeometry x="250.00267221650384" y="109.99946878090742" width="100" height="40" as="geometry" />
        </mxCell>
        <mxCell id="nHeNub96CPO3WCwvrTsb-2" value="&lt;span style=&quot;font-size: 12px;&quot;&gt;Login Details&lt;/span&gt;" style="text;strokeColor=none;fillColor=none;html=1;fontSize=24;fontStyle=1;verticalAlign=middle;align=center;rotation=5;" vertex="1" parent="ZS98AFgOagFly8oTbTb0-1">
          <mxGeometry x="250.00267221650384" y="149.99946878090742" width="100" height="40" as="geometry" />
        </mxCell>
        <mxCell id="nHeNub96CPO3WCwvrTsb-3" value="&lt;span style=&quot;font-size: 12px;&quot;&gt;Give Permission&lt;/span&gt;" style="text;strokeColor=none;fillColor=none;html=1;fontSize=24;fontStyle=1;verticalAlign=middle;align=center;rotation=0;" vertex="1" parent="ZS98AFgOagFly8oTbTb0-1">
          <mxGeometry x="250.00267221650384" y="189.99946878090742" width="100" height="40" as="geometry" />
        </mxCell>
        <mxCell id="nHeNub96CPO3WCwvrTsb-4" value="&lt;span style=&quot;font-size: 12px;&quot;&gt;Login Details&lt;/span&gt;" style="text;strokeColor=none;fillColor=none;html=1;fontSize=24;fontStyle=1;verticalAlign=middle;align=center;rotation=-15;" vertex="1" parent="ZS98AFgOagFly8oTbTb0-1">
          <mxGeometry x="266.07" y="230.52" width="100" height="49.66" as="geometry" />
        </mxCell>
        <mxCell id="nHeNub96CPO3WCwvrTsb-5" value="&lt;span style=&quot;font-size: 12px;&quot;&gt;Give access&lt;/span&gt;" style="text;strokeColor=none;fillColor=none;html=1;fontSize=24;fontStyle=1;verticalAlign=middle;align=center;rotation=-15;" vertex="1" parent="ZS98AFgOagFly8oTbTb0-1">
          <mxGeometry x="290.00276820434897" y="260.00489052188357" width="100" height="49.66" as="geometry" />
        </mxCell>
        <mxCell id="nHeNub96CPO3WCwvrTsb-6" value="&lt;span style=&quot;font-size: 12px;&quot;&gt;Confirm Credentials&lt;/span&gt;" style="text;strokeColor=none;fillColor=none;html=1;fontSize=24;fontStyle=1;verticalAlign=middle;align=center;rotation=-30;" vertex="1" parent="ZS98AFgOagFly8oTbTb0-1">
          <mxGeometry x="522.5" y="79.67" width="120" height="59.66" as="geometry" />
        </mxCell>
        <mxCell id="nHeNub96CPO3WCwvrTsb-7" value="&lt;span style=&quot;font-size: 12px;&quot;&gt;Confirm Credentials&lt;/span&gt;" style="text;strokeColor=none;fillColor=none;html=1;fontSize=24;fontStyle=1;verticalAlign=middle;align=center;rotation=0;" vertex="1" parent="ZS98AFgOagFly8oTbTb0-1">
          <mxGeometry x="522.5" y="150" width="120" height="50" as="geometry" />
        </mxCell>
        <mxCell id="nHeNub96CPO3WCwvrTsb-8" value="&lt;span style=&quot;font-size: 12px;&quot;&gt;Confirm Credentials&lt;/span&gt;" style="text;strokeColor=none;fillColor=none;html=1;fontSize=24;fontStyle=1;verticalAlign=middle;align=center;rotation=15;" vertex="1" parent="ZS98AFgOagFly8oTbTb0-1">
          <mxGeometry x="537.41" y="239.66" width="120" height="39.66" as="geometry" />
        </mxCell>
      </root>
    </mxGraphModel>
  </diagram>
</mxfile>
